<?xml version="1.0" encoding="UTF-8"?>
<!DOCTYPE svg PUBLIC "-//W3C//DTD SVG 1.1//EN" "http://www.w3.org/Graphics/SVG/1.1/DTD/svg11.dtd">
<!-- Creator: CorelDRAW 2021 (64-Bit) -->
<svg xmlns="http://www.w3.org/2000/svg" xml:space="preserve" width="42.3332mm" height="42.3332mm" version="1.1" style="shape-rendering:geometricPrecision; text-rendering:geometricPrecision; image-rendering:optimizeQuality; fill-rule:evenodd; clip-rule:evenodd"
viewBox="0 0 4233.32 4233.32"
 xmlns:xlink="http://www.w3.org/1999/xlink"
 xmlns:xodm="http://www.corel.com/coreldraw/odm/2003">
 <defs>
  <style type="text/css">
   <![CDATA[
    .fil0 {fill:#FFCA08}
   ]]>
  </style>
 </defs>
 <g id="Layer_x0020_1">
  <metadata id="CorelCorpID_0Corel-Layer"/>
  <g id="_2450218127248">
   <path class="fil0" d="M1504.75 1219.06c0,68.76 16.62,64.04 30.84,107.29 4.23,12.84 8.55,23.69 14.11,35.24l29.31 66.06c10.09,24.16 18.31,42.9 28.83,66.57 19.82,44.6 38.06,85.58 57.16,130.3l115.13 263.14c9.78,22.89 18.59,43.84 29.5,65.98 7.61,15.41 9.62,17.49 -0.1,30.42l-100.83 139.52c-65.2,92.44 -134.39,182.22 -198.02,275.61l-39.72 55.67c-80.89,108.38 -155.79,220.53 -236.84,328.88l-159.59 221.95c-26.07,38.24 -54.15,73.18 -79.59,111.17 4.58,19.69 17.58,35.08 26.29,52.66 8.75,17.66 17.78,32.29 27.39,51.54l137.24 257.46c9.65,16.62 17.21,34.13 27.55,51.39 30.45,50.84 52.47,103.52 82.74,154.07l109.97 205.78c5.33,10.24 24.25,44.02 26.27,52.67 12.18,-8.92 34.82,-59.74 43.86,-77.84 14.49,-29.03 27.98,-52.69 42.75,-82.23 54.64,-109.27 114.29,-215.24 168.84,-324.52l42.77 -82.23c7.47,-15.05 13.8,-27.55 20.82,-41.67 7.37,-14.82 14.44,-25.44 21.97,-40.52l84.34 -162.34c30.04,-53.68 53.37,-109.6 83.41,-163.28l84.37 -162.31c7.82,-15.77 14.72,-25.94 21.96,-40.53 9.73,-19.62 54.1,-113.19 65.75,-121.72 0.92,10.98 11.94,32.15 16.54,42.66 6.14,14.03 13.67,29.86 19.19,43.31l93.94 215.23c6.41,15.37 12.64,27.76 19.26,43.24 123.11,288.17 252.29,572.99 376.39,860.31l57.33 130.15c5.48,13.37 12.42,30.31 19.26,43.23 7.95,-5.83 11.98,-15.06 18.39,-24.36l200.59 -286.21c13.3,-18.27 23.33,-33.93 36.22,-52.57l71.72 -102.61c70.29,-106.5 148.64,-207.38 219.06,-313.78 11.66,-17.62 24.25,-34.77 36.19,-52.61 -22.03,-41.64 -162.06,-260.28 -201.3,-318.39l-75.63 -118.42c-9.17,-14.67 -16.63,-26.42 -25.7,-40.08l-125.1 -197.22c-7.91,-13.24 -16.64,-26.07 -25.52,-40.27 -4.66,-7.45 -8.44,-12.35 -13.17,-19.72l-126.24 -199.38c-4.74,-7.37 -8.52,-12.27 -13.18,-19.72 -8.63,-13.79 -15.82,-24.34 -24.28,-38.21l-179 -281.48c4.79,-17.92 36.95,-75.1 47.95,-93.48l294.26 -567.48c61.96,-106.62 34.85,-148.18 -9.06,-251.07 -5.03,-11.8 -9.68,-19.21 -15.24,-30.8l-28.51 -63.59c-4.91,-11.05 -11.45,-21.92 -16.36,-32.97l-104.23 -224.68c-37.47,-74.47 -67.61,-152.55 -105.19,-227.01 -24.58,-48.68 -37.91,-68.61 -82.9,-104.58 -58.54,-46.82 -129.84,-75.2 -214.24,-75.2 -38.54,0 -65.77,2.8 -102.09,3.16 -59.96,0.61 -134.47,11.52 -191.31,25.77 -76.81,19.25 -156.61,53.65 -212.33,110.01 -20.51,20.74 -34.01,32.73 -50.83,57.7 -18.93,28.11 -23.66,37.32 -34.34,74.21 -8.31,28.68 -14.63,53.68 -22.78,82.48 -40.28,142.35 -75.72,285.39 -109.93,429.48 -12.02,50.65 -26.31,130.23 -26.31,190.77zm296.02 -243.41l358.52 595.33 388.11 -569.01c0,0 -194.06,-269.71 -394.69,-217.08 -200.64,52.62 -180.8,19.63 -351.94,190.76z"/>
  </g>
 </g>
</svg>
