<?xml version="1.0" encoding="UTF-8"?>
<!DOCTYPE svg PUBLIC "-//W3C//DTD SVG 1.1//EN" "http://www.w3.org/Graphics/SVG/1.1/DTD/svg11.dtd">
<!-- Creator: CorelDRAW 2021 (64-Bit) -->
<svg xmlns="http://www.w3.org/2000/svg" xml:space="preserve" width="91.44mm" height="91.44mm" version="1.1" style="shape-rendering:geometricPrecision; text-rendering:geometricPrecision; image-rendering:optimizeQuality; fill-rule:evenodd; clip-rule:evenodd"
viewBox="0 0 9144 9144"
 xmlns:xlink="http://www.w3.org/1999/xlink"
 xmlns:xodm="http://www.corel.com/coreldraw/odm/2003">
 <defs>
  <style type="text/css">
   <![CDATA[
    .fil0 {fill:#1D1D1B}
   ]]>
  </style>
 </defs>
 <g id="Layer_x0020_1">
  <metadata id="CorelCorpID_0Corel-Layer"/>
  <path class="fil0" d="M3204.57 2499.75c0,161.59 39.06,150.49 72.48,252.13 9.92,30.17 20.07,55.67 33.14,82.79l68.88 155.25c23.71,56.76 43.03,100.8 67.74,156.41 46.57,104.82 89.44,201.11 134.33,306.2l270.52 618.32c22.99,53.79 43.7,103.03 69.34,155.04 17.86,36.23 22.59,41.1 -0.24,71.5l-236.94 327.85c-153.21,217.2 -315.79,428.18 -465.32,647.63l-93.34 130.81c-190.06,254.67 -366.08,518.22 -556.53,772.83l-375 521.53c-61.27,89.87 -127.24,171.96 -187.03,261.25 10.77,46.25 41.3,82.42 61.77,123.72 20.57,41.5 41.78,75.88 64.38,121.12l322.47 605c22.69,39.05 40.46,80.18 64.74,120.74 71.55,119.48 123.3,243.27 194.43,362.05l258.42 483.55c12.52,24.06 56.99,103.44 61.73,123.77 28.62,-20.97 81.81,-140.39 103.05,-182.92 34.05,-68.21 65.77,-123.8 100.47,-193.22 128.38,-256.77 268.57,-505.78 396.75,-762.58l100.49 -193.21c17.55,-35.38 32.44,-64.75 48.93,-97.92 17.32,-34.83 33.93,-59.8 51.63,-95.22l198.18 -381.48c70.6,-126.13 125.4,-257.54 196,-383.67l198.25 -381.41c18.39,-37.06 34.59,-60.95 51.6,-95.25 22.87,-46.1 127.14,-265.96 154.52,-286.02 2.15,25.81 28.04,75.56 38.86,100.26 14.42,32.95 32.13,70.15 45.08,101.76l220.75 505.77c15.07,36.11 29.71,65.23 45.25,101.6 289.31,677.16 592.85,1346.42 884.46,2021.59l134.72 305.82c12.88,31.43 29.19,71.22 45.26,101.59 18.69,-13.69 28.14,-35.38 43.22,-57.25l471.35 -672.53c31.25,-42.93 54.81,-79.73 85.12,-123.55l168.53 -241.1c165.17,-250.27 349.27,-487.32 514.75,-737.34 27.4,-41.41 56.97,-81.71 85.04,-123.63 -51.78,-97.85 -380.81,-611.6 -473.02,-748.15l-177.72 -278.27c-21.55,-34.47 -39.09,-62.1 -60.39,-94.18l-293.98 -463.45c-18.57,-31.1 -39.09,-61.26 -59.96,-94.63 -10.94,-17.5 -19.83,-29.01 -30.94,-46.34l-296.66 -468.49c-11.12,-17.33 -20.01,-28.84 -30.95,-46.35 -20.28,-32.41 -37.19,-57.2 -57.06,-89.79l-420.62 -661.42c11.25,-42.12 86.81,-176.48 112.67,-219.67l691.47 -1333.48c145.6,-250.54 81.89,-348.2 -21.29,-589.97 -11.83,-27.73 -22.76,-45.15 -35.82,-72.38l-66.99 -149.43c-11.55,-25.96 -26.9,-51.52 -38.44,-77.48l-244.94 -527.96c-88.03,-174.99 -158.85,-358.47 -247.18,-533.43 -57.75,-114.39 -89.08,-161.22 -194.79,-245.76 -137.55,-110 -305.1,-176.7 -503.44,-176.7 -90.55,0 -154.54,6.58 -239.89,7.43 -140.9,1.42 -315.97,27.07 -449.55,60.55 -180.49,45.24 -368.01,126.07 -498.93,258.5 -48.19,48.74 -79.93,76.92 -119.45,135.6 -44.48,66.05 -55.6,87.68 -80.69,174.37 -19.52,67.4 -34.37,126.15 -53.52,193.81 -94.67,334.51 -177.94,670.63 -258.32,1009.21 -28.25,119.03 -61.83,306.02 -61.83,448.28zm695.61 -571.96l842.45 1398.93 912 -1337.1c0,0 -456.01,-633.77 -927.47,-510.1 -471.45,123.66 -424.83,46.13 -826.98,448.27z"/>
 </g>
</svg>
